<!-- Generator: Adobe Illustrator 21.1.0, SVG Export Plug-In  -->
<svg version="1.1"
	 xmlns="http://www.w3.org/2000/svg" xmlns:xlink="http://www.w3.org/1999/xlink" xmlns:a="http://ns.adobe.com/AdobeSVGViewerExtensions/3.0/"
	 x="0px" y="0px" width="84.2px" height="100px" viewBox="0 0 84.2 100" style="enable-background:new 0 0 84.2 100;"
	 xml:space="preserve">
<style type="text/css">
	.st0{fill:#010101;}
</style>
<defs>
</defs>
<path class="st0" d="M48.4,0c-4.6,0-8.7,2.1-11.6,5.3c-1.3-2-3.4-3.3-5.9-3.3c-3.9,0-7.1,3.4-7.1,7.6c0,4.2,3.2,7.6,7.1,7.6
	c0.7,0,1.4-0.2,2.1-0.4c0.7,8,7.2,14.2,15.4,14.2c8.6,0,15.5-6.9,15.5-15.5C63.9,6.9,56.9,0,48.4,0z"/>
<path class="st0" d="M58.5,90.9C58.3,91,58.1,91,57.9,91c-0.7,0-1.3-0.4-1.5-1.1c-0.3-0.8,0.1-1.8,0.9-2.1L79,79.1
	c4.7-2,5.9-5.9,5-9.1l0,0l-8.8-26.6c-1.5-4.5-5-11.8-12.4-14.7C59.1,32.5,54,35,48.4,35c-6.3,0-11.8-3-15.4-7.6h-1.9
	c-9.4,0.1-14.1,2.8-18.2,9.8L1.2,66.3c-2,3.1-1.7,7.9,3.1,11.1l8.7,5.6L7.2,100h74.2l-6.1-15.7L58.5,90.9z M47.8,66.7L47.8,66.7
	c0,0,3.1,3.8,3.1,6.6c0,0.9-0.2,1.3-0.4,1.7l-5.9,2.5l-14.3,5.9c-0.9,0.4-1.7,0.9-2.4,1.4c-1.5-0.8-2.7-2.1-3.3-3.8
	c-0.8-2.3,0.2-5,0.3-5.1c0.7-2.6,1.6-5.5,2.3-8c-2.7-0.6-5.5-1.1-8.2-1.7c-4.2-0.9-3-7,1.2-6.1c4.1,0.8,8,1.6,12.1,2.4
	c0.8,0.2,1.8,0.5,2.2,1c0.9,0.9,1.3,2.2,0.8,3.9c-0.3,1.1-0.6,2.2-0.9,3.3c1.9-0.6,4.9-1.6,7-2.2C40.5,66,39.8,63,40.1,60
	c0.9-8.2,7.6-11.6,7.9-11.8c1.6-0.8,3.6-0.1,4.4,1.5c0.8,1.6,0.1,3.6-1.5,4.4c-0.1,0.1-3.8,2-4.2,6.5C46.5,62.6,47,64.8,47.8,66.7z
	 M51.9,66.8C50.2,61.7,53,56.3,58,54.6c5.1-1.7,10.5,1.1,12.2,6.1c0.7,2,0.6,4.1-0.1,6l-13.3,5.6C54.6,71.3,52.7,69.3,51.9,66.8z"/>
</svg>
