<!-- Generator: Adobe Illustrator 21.1.0, SVG Export Plug-In  -->
<svg version="1.1"
	 xmlns="http://www.w3.org/2000/svg" xmlns:xlink="http://www.w3.org/1999/xlink" xmlns:a="http://ns.adobe.com/AdobeSVGViewerExtensions/3.0/"
	 x="0px" y="0px" width="75px" height="90px" viewBox="0 0 75 90" style="enable-background:new 0 0 75 90;" xml:space="preserve">
<defs>
</defs>
<path d="M72.4,0H11.5C9.9,0,9,1.5,9,3v16H2.1C0.6,19,0,20.2,0,21.8v51.6C0,82.7,6.9,90,16.2,90h42.2C67.7,90,75,82.7,75,73.3V3
	C75,1.5,74,0,72.4,0z M70,73.3C70,79.6,64.6,84,58.4,84H16.2C10,84,5,79.6,5,73.3V24h6v49.3c0,1,1,1.9,2,1.9s2-0.8,2-1.9V21.8V6h55
	V73.3z M25.5,29.9c1.6,0,2.8-1.3,2.8-2.8s-1.3-2.8-2.8-2.8s-2.8,1.3-2.8,2.8S24,29.9,25.5,29.9z M32.1,27c0-1,0.8-2,1.9-2h17.8
	c1,0,1.9,1,1.9,2s-0.8,2-1.9,2H34C32.9,29,32.1,28,32.1,27z M32.1,36c0-1,0.8-2,1.9-2h17.8c1,0,1.9,1,1.9,2s-0.8,2-1.9,2H34
	C32.9,38,32.1,37,32.1,36z M25.5,20.8c1.6,0,2.8-1.3,2.8-2.8s-1.3-2.8-2.8-2.8s-2.8,1.3-2.8,2.8S24,20.8,25.5,20.8z M32.1,18
	c0-1,0.8-2,1.9-2h25.3c1,0,1.9,1,1.9,2s-0.8,2-1.9,2H34C32.9,20,32.1,19,32.1,18z M25.5,48.2c1.6,0,2.8-1.3,2.8-2.8
	s-1.3-2.8-2.8-2.8s-2.8,1.3-2.8,2.8S24,48.2,25.5,48.2z M32.1,45c0-1,0.8-2,1.9-2h12.2c1,0,1.9,1,1.9,2s-0.8,2-1.9,2H34
	C32.9,47,32.1,46,32.1,45z M25.5,39.1c1.6,0,2.8-1.3,2.8-2.8s-1.3-2.8-2.8-2.8s-2.8,1.3-2.8,2.8S24,39.1,25.5,39.1z M25.5,57.4
	c1.6,0,2.8-1.3,2.8-2.8s-1.3-2.8-2.8-2.8s-2.8,1.3-2.8,2.8S24,57.4,25.5,57.4z M32.1,55c0-1,0.8-2,1.9-2h20.6c1,0,1.9,1,1.9,2
	s-0.8,2-1.9,2H34C32.9,57,32.1,56,32.1,55z M25.5,66.5c1.6,0,2.8-1.3,2.8-2.8s-1.3-2.8-2.8-2.8s-2.8,1.3-2.8,2.8
	C22.7,65.2,24,66.5,25.5,66.5z M32.1,64c0-1,0.8-2,1.9-2h16.9c1,0,1.9,1,1.9,2s-0.8,2-1.9,2H34C32.9,66,32.1,65,32.1,64z M25.5,75.7
	c1.6,0,2.8-1.3,2.8-2.8s-1.3-2.8-2.8-2.8s-2.8,1.3-2.8,2.8S24,75.7,25.5,75.7z M32.1,73c0-1,0.8-2,1.9-2h23.4c1,0,1.9,1,1.9,2
	s-0.8,2-1.9,2H34C32.9,75,32.1,74,32.1,73z"/>
</svg>
