<!-- Generator: Adobe Illustrator 21.1.0, SVG Export Plug-In  -->
<svg version="1.1"
	 xmlns="http://www.w3.org/2000/svg" xmlns:xlink="http://www.w3.org/1999/xlink" xmlns:a="http://ns.adobe.com/AdobeSVGViewerExtensions/3.0/"
	 x="0px" y="0px" width="141.1px" height="124.2px" viewBox="0 0 141.1 124.2" style="enable-background:new 0 0 141.1 124.2;"
	 xml:space="preserve">
<defs>
</defs>
<circle cx="32.6" cy="50" r="18.5"/>
<path d="M45.5,76.4c0.6,1.9,1.1,3.9,1.6,5.8c0.2,0.7,0.3,1.5,0.4,2.2c1.3,0.2,2.5,0.7,3.5,1.6c1.3,1.2,2.1,3,2.1,4.8v13.4
	c0,0.5-0.4,0.9-0.9,0.9h-1.3c-0.2,0.3-0.6,0.6-1.1,0.6c-0.7,0-1.3-0.6-1.3-1.3c0-0.7,0.6-1.3,1.3-1.3c0.4,0,0.7,0.2,1,0.4h0.6V90.8
	c0-1.3-0.6-2.6-1.5-3.5c-1-0.9-2.3-1.3-3.6-1.2c-2.4,0.2-4.3,2.4-4.3,5v12.3h0.6c0.2-0.3,0.6-0.4,1-0.4c0.7,0,1.3,0.6,1.3,1.3
	c0,0.7-0.6,1.3-1.3,1.3c-0.4,0-0.8-0.2-1.1-0.6h-1.3c-0.5,0-0.9-0.4-0.9-0.9v-13c0-3.3,2.3-6,5.3-6.6c-0.1-0.6-0.2-1.2-0.3-1.8
	c-0.5-2.2-1.1-4.5-1.9-6.7c-3.3-0.6-6.9-0.9-10.6-0.9c-3.3,0-6.5,0.2-9.5,0.7c-0.8,2.2-1.4,4.5-1.9,6.8l0,0c2.7,0.7,4.6,3.1,4.6,5.9
	c0,3.4-2.7,6.1-6.1,6.1c-3.4,0-6.1-2.7-6.1-6.1c0-3.2,2.5-5.8,5.6-6.1c0-0.1,0-0.2,0-0.3c0.4-2,1-4,1.6-6C8.7,78.5,0,84.4,0,91.4
	c0,0.7,0.1,1.3,0.2,2l2.7,22.5c0.6,4.8,4.2,8.3,8.4,8.3h42.6c4.2,0,7.8-3.5,8.4-8.3l2.8-22.4c0.2-0.7,0.2-1.3,0.2-2
	C65.4,84.7,57.2,78.9,45.5,76.4z"/>
<circle cx="108.4" cy="50" r="18.5"/>
<path d="M121.3,76.3c-4.2-0.9-8.5-1.3-12.7-1.3c-7.1,0-14.6,0.9-21.2,3.6c-5.4,2.2-11.6,6.2-11.6,12.7c0,0.7,0.1,1.3,0.2,2l2.7,22.5
	c0.6,4.8,4.2,8.3,8.4,8.3h42.6c4.2,0,7.8-3.5,8.4-8.3l2.8-22.4c0.2-0.7,0.2-1.3,0.2-2c0.1-5.7-5.3-9.6-9.9-11.8
	C128.1,78.1,124.7,77.1,121.3,76.3z"/>
<path d="M69.6,0C54.5,0,42.3,8.4,42.3,18.8c0,5.6,3.5,10.8,9.7,14.3v7.5c0,0.9,0.5,1.7,1.4,2.1c0.8,0.4,1.8,0.2,2.5-0.4l6.4-5.5
	c4.9,0.9,10,0.9,14.8,0l6.4,5.5c0.4,0.4,1,0.6,1.5,0.6c0.3,0,0.7-0.1,1-0.2c0.8-0.4,1.4-1.2,1.4-2.1v-7.5c6.2-3.6,9.7-8.7,9.7-14.3
	C96.9,8.4,84.7,0,69.6,0z M83.8,29.7c-1,0.5-1.4,1.5-1.2,2.5v3.3l-3-2.6c-0.5-0.7-1.5-1.1-2.4-0.9c-5,1.1-10.3,1.1-15.3,0
	c-0.9-0.2-1.8,0.1-2.3,0.8l-3.1,2.7v-3.1c0.3-1.1-0.1-2.3-1.2-2.8c-5.4-2.7-8.5-6.7-8.5-11c0-7.7,10.4-14.1,22.7-14.1
	c12.3,0,22.7,6.5,22.7,14.1C92.3,23,89.2,27,83.8,29.7z"/>
</svg>
