<!-- Generator: Adobe Illustrator 21.1.0, SVG Export Plug-In  -->
<svg version="1.1"
	 xmlns="http://www.w3.org/2000/svg" xmlns:xlink="http://www.w3.org/1999/xlink" xmlns:a="http://ns.adobe.com/AdobeSVGViewerExtensions/3.0/"
	 x="0px" y="0px" width="143.3px" height="133.6px" viewBox="0 0 143.3 133.6" style="enable-background:new 0 0 143.3 133.6;"
	 xml:space="preserve">
<defs>
</defs>
<g>
	<g>
		<circle cx="107.8" cy="18.5" r="16"/>
		<path d="M76.7,89.2c0.2,0,0.4,0,0.6,0c2.5,0,4.7-1.9,5-4.4c1.5-12.8,4.3-21.2,7.3-26.6c-2.3,13.4-5,21.6-5,33.8
			c0,1.1,3.2,1.9,8,2.4v32.8c0,3.6,2.9,6.5,6.5,6.5c3.6,0,6.5-2.9,6.5-6.5V95c1.5,0,3,0,4.5,0v32.1c0,3.6,2.9,6.5,6.5,6.5
			c3.6,0,6.5-2.9,6.5-6.5V94.4c4.8-0.5,8-1.3,8-2.4c0-12.2-2.7-20.3-5-33.8c2.9,5.4,5.8,13.7,7.3,26.6c0.3,2.6,2.5,4.4,5,4.4
			c0.2,0,0.4,0,0.6,0c2.7-0.3,4.7-2.8,4.4-5.5c-2.2-19.3-7.6-30.5-12.9-37c-4.8-5.8-9.5-7.6-11-8c-2.3-0.8-5.9-1.5-11.6-1.5
			c-5.7,0-9.3,0.7-11.6,1.5c-1.5,0.4-6.2,2.2-11,8c-5.3,6.5-10.7,17.7-12.9,37C72,86.4,74,88.9,76.7,89.2z"/>
	</g>
	<g>
		<circle cx="34.4" cy="17.5" r="17.5"/>
		<path d="M4.7,90.7c0.1,0,0.2,0,0.3,0c2.6,0,4.9-2.1,5-4.7c0.9-18.5,4.1-25.7,6.9-30.9v36.5v32c0,4.4,3.6,8,8,8s8-3.6,8-8v-39h3v39
			c0,4.4,3.6,8,8,8s8-3.6,8-8v-32V55c0.1,0.2,0.2,0.4,0.3,0.6c2.7,5.4,5.7,12.5,6.6,30.4c0.1,2.7,2.3,4.7,5,4.7c0.1,0,0.2,0,0.3,0
			c2.8-0.1,4.9-2.5,4.7-5.2c-1.1-21.4-5-30.3-9.2-37.2c-4.2-6.9-9.1-8.5-10.3-8.7c-0.5-0.1-1-0.1-1.5,0c-0.3,0-0.6-0.1-0.9-0.1h-25
			c-0.3,0-0.6,0-0.9,0.1c-0.5-0.1-1-0.1-1.5,0v0c-1.3,0.2-6.1,1.8-10.3,8.7C5,55.2,1.1,64,0,85.4C-0.1,88.2,2,90.5,4.7,90.7z"/>
	</g>
</g>
</svg>
