<!-- Generator: Adobe Illustrator 21.1.0, SVG Export Plug-In  -->
<svg version="1.1"
	 xmlns="http://www.w3.org/2000/svg" xmlns:xlink="http://www.w3.org/1999/xlink" xmlns:a="http://ns.adobe.com/AdobeSVGViewerExtensions/3.0/"
	 x="0px" y="0px" width="83.6px" height="83.6px" viewBox="0 0 83.6 83.6" style="enable-background:new 0 0 83.6 83.6;"
	 xml:space="preserve">
<defs>
</defs>
<path d="M56.7,13.2c0-3.5-1.4-6.8-3.8-9.3C50.4,1.4,47.1,0,43.6,0s-6.8,1.4-9.3,3.8L3.8,34.2C1.4,36.7,0,40,0,43.6
	c0,3.5,1.4,6.8,3.8,9.3c2.5,2.5,5.8,3.8,9.3,3.8s6.8-1.4,9.3-3.8l30.4-30.4C55.4,20,56.7,16.7,56.7,13.2z M20.4,50.8
	c-4,4-10.4,4-14.4,0c-1.9-1.9-3-4.5-3-7.2c0-2.7,1.1-5.3,3-7.2l14.1-14.1l14.4,14.4L20.4,50.8z"/>
<path d="M10.7,37.4c-0.1,0.1-2.5,1.8-3,4.8c-0.3,2,0.2,4,1.7,6c0.3,0.4,0.8,0.6,1.2,0.6c0.3,0,0.6-0.1,0.9-0.3
	c0.7-0.5,0.8-1.4,0.3-2.1c-1-1.3-1.4-2.6-1.2-3.8c0.3-1.8,1.8-2.9,1.8-2.9c0.7-0.5,0.8-1.4,0.4-2.1C12.4,37.1,11.4,36.9,10.7,37.4z"
	/>
<path d="M79.7,30.7c-2.5-2.5-5.8-3.8-9.3-3.8s-6.8,1.4-9.3,3.8L30.7,61.1c-2.5,2.5-3.8,5.8-3.8,9.3c0,3.5,1.4,6.8,3.8,9.3
	c2.6,2.6,5.9,3.9,9.3,3.9s6.7-1.3,9.3-3.9l30.4-30.4c2.5-2.5,3.8-5.8,3.8-9.3C83.6,36.5,82.2,33.2,79.7,30.7z M38.6,73.3
	c0.5,0.7,0.3,1.6-0.3,2.1c-0.3,0.2-0.6,0.3-0.9,0.3c-0.5,0-0.9-0.2-1.2-0.6c-1.5-2-2-4-1.7-6c0.5-3,2.9-4.7,3-4.8
	c0.7-0.5,1.6-0.3,2.1,0.4c0.5,0.7,0.3,1.6-0.4,2.1c0,0-1.5,1.1-1.8,2.9C37.3,70.7,37.7,72,38.6,73.3z M77.6,47.2L63.4,61.3
	L49.1,46.9l14.1-14.1c1.9-1.9,4.5-3,7.2-3s5.3,1.1,7.2,3s3,4.5,3,7.2C80.6,42.7,79.5,45.3,77.6,47.2z"/>
</svg>
