<!-- Generator: Adobe Illustrator 21.1.0, SVG Export Plug-In  -->
<svg version="1.1"
	 xmlns="http://www.w3.org/2000/svg" xmlns:xlink="http://www.w3.org/1999/xlink" xmlns:a="http://ns.adobe.com/AdobeSVGViewerExtensions/3.0/"
	 x="0px" y="0px" width="56px" height="57px" viewBox="0 0 56 57" style="enable-background:new 0 0 56 57;" xml:space="preserve">
<defs>
</defs>
<path d="M22,36.5c0-2.7-2-5-4.6-5.4c0,0,0,0,0,0C17.1,31,16.8,31,16.5,31h-11c-0.2,0-0.4,0-0.6,0c0,0-0.1,0-0.1,0
	c-0.2,0-0.3,0-0.5,0.1c0,0-0.1,0-0.1,0c-0.1,0-0.3,0.1-0.4,0.1c0,0-0.1,0-0.1,0c-0.1,0-0.3,0.1-0.4,0.2c0,0-0.1,0-0.1,0.1
	c-0.1,0.1-0.3,0.1-0.4,0.2c0,0-0.1,0.1-0.1,0.1c-0.1,0.1-0.2,0.2-0.3,0.2c0,0-0.1,0.1-0.1,0.1c-0.1,0.1-0.2,0.2-0.3,0.3
	c0,0-0.1,0.1-0.1,0.1c-0.1,0.1-0.2,0.2-0.3,0.4c-0.9,1-1.4,2.2-1.4,3.6c0,1.2,0.4,2.2,1,3.2v-2.2C1,35,3,33,5.4,33H14v2H5.4
	C4.1,35,3,36.1,3,37.4V42v15h16v-0.7V42c0-0.3,0.2-0.7,0.5-0.8c0.1-0.1,0.2-0.1,0.2-0.2c0.1-0.1,0.1-0.1,0.2-0.2c0,0,0,0,0,0
	C21.2,39.7,22,38.2,22,36.5z M18,35h-2v-2h2V35z"/>
<path d="M36.2,41H31c-3.4,0-6.7,0.5-10,1.5c0,0,0,0,0,0v13c3.3,1,6.6,1.5,10,1.5h5.2c0.6,0,1.2,0,1.8-0.1c-1.2-2-3-5.4-3-8.9
	c0-3.1,1.1-5.5,2-7C36.7,41,36.5,41,36.2,41z"/>
<circle cx="38" cy="7" r="1"/>
<path d="M14,19H0.6l0.1,2H4v2H0.9l0.5,7.2c0,0,0.1,0,0.1,0C1.8,30,2,29.9,2.3,29.7c0.1,0,0.1-0.1,0.2-0.1c0.3-0.1,0.6-0.3,0.9-0.3
	c0,0,0.1,0,0.1,0c0.3-0.1,0.6-0.1,0.9-0.2c0.1,0,0.2,0,0.2,0c0.3,0,0.6-0.1,1-0.1h11c0.1,0,0.1,0,0.2,0l0.1-2H8.5v-2H17l0.6-8.7
	c0.1-1.1-0.3-2.2-1.1-3c-0.8-0.8-1.8-1.3-2.9-1.3H11H9H6H4.4c-1.1,0-2.2,0.5-2.9,1.3c-0.8,0.8-1.1,1.9-1.1,3L0.4,17H14V19z M8,23H6
	v-2h2V23z"/>
<path d="M49.1,46c-2.8-2.5-6.2-4.1-9.9-4.7c-0.8,1-2.3,3.4-2.3,6.7c0,3.5,2.1,7,3.2,8.6c3.3-0.7,6.4-2.2,8.9-4.5l1.4-1.2L45.2,52
	l-0.4-2l7.1-1.6L49.1,46z M45,47h-2v-2h2V47z"/>
<polygon points="10.5,11 10.7,11 13.1,2 11.4,2 "/>
<polygon points="6.5,2 3.9,2 7.1,11 7.3,11 "/>
<path d="M47,57h9V11.4l-4-4l-4,4V21v2.5V40h-2V28.6c-1.4,1.5-3.3,2.4-5.5,2.4c-4.1,0-7.5-3.4-7.5-7.5v-3c0-2.5-2-4.5-4.5-4.5
	S24,18,24,20.5V21v14h7c0.3,0,0.6,0.1,0.8,0.4l2.7,3.6h1.7c5.3,0,10.3,1.9,14.2,5.5l4.2,3.8c0.2,0.2,0.3,0.5,0.3,0.7
	s-0.1,0.6-0.3,0.7l-4.2,3.8c-1.5,1.3-3.1,2.4-4.8,3.2L47,57z"/>
<path d="M24,37c-0.1,1-0.3,2-0.8,2.8c2.6-0.6,5.2-0.8,7.8-0.8h1l-1.5-2H24z"/>
<polygon points="12.8,11 13.8,11 16,5 14.4,5 "/>
<polygon points="8,11 8.1,11 10.6,2 8.8,2 "/>
<path d="M29,0v1v5c0,0.3-0.1,0.5-0.3,0.7L25.4,10H34v2H24v3.8c1.2-1.1,2.8-1.8,4.5-1.8c3.6,0,6.5,2.9,6.5,6.5v3c0,3,2.5,5.5,5.5,5.5
	s5.5-2.5,5.5-5.5V21V11c0-0.3,0.1-0.5,0.3-0.7L51,5.6V1V0H29z M37,1v2h-2V1H37z M33,3h-2V1h2V3z M38,10c-1.7,0-3-1.3-3-3s1.3-3,3-3
	s3,1.3,3,3S39.7,10,38,10z M41,3h-2V1h2V3z M45,3h-2V1h2V3z M49,3h-2V1h2V3z"/>
</svg>
