<!-- Generator: Adobe Illustrator 21.1.0, SVG Export Plug-In  -->
<svg version="1.1"
	 xmlns="http://www.w3.org/2000/svg" xmlns:xlink="http://www.w3.org/1999/xlink" xmlns:a="http://ns.adobe.com/AdobeSVGViewerExtensions/3.0/"
	 x="0px" y="0px" width="89.9px" height="51.6px" viewBox="0 0 89.9 51.6" style="enable-background:new 0 0 89.9 51.6;"
	 xml:space="preserve">
<defs>
</defs>
<g>
	<path d="M82.7,26.5v10.9h-4.4V26.5H65.7v7.1h-4.4v-7.1H47.2v10.9h-4.4V26.8c8.4-2.2,14.9-6.4,14.9-12.6C57.7,5,42.8,0,28.9,0
		C14.9,0,0.1,5,0.1,14.2c0,0.7,0.1,1.4,0.3,2.1L0,16v23.2v1.9c0,5.8,12,10.5,26.8,10.5h5.4h57.7V26.5H82.7z M28.9,4.6
		c15.3,0,24.7,5.6,24.7,9.6c0,4-9.4,9.6-24.7,9.6S4.2,18.3,4.2,14.2C4.2,10.2,13.6,4.6,28.9,4.6z M7.3,33.6v-9.8
		c1.3,0.7,2.8,1.4,4.4,1.9v9.6L7.3,33.6z M24.6,33.6v-5.3c1.4,0.1,2.9,0.2,4.3,0.2c0,0,0.1,0,0.1,0v5.1H24.6z"/>
	<path d="M28.7,21.2c3.1,0,18.6-0.3,18.6-7.1C47.3,7.4,31.8,7,28.7,7c-3.1,0-18.6,0.3-18.6,7.1C10.1,20.9,25.6,21.2,28.7,21.2z
		 M28.7,11.6c7.6,0,12.5,1.5,14.1,2.5c-1.7,1-6.5,2.5-14.1,2.5c-7.6,0-12.5-1.5-14.1-2.5C16.2,13.1,21.1,11.6,28.7,11.6z"/>
</g>
</svg>
