<!-- Generator: Adobe Illustrator 21.1.0, SVG Export Plug-In  -->
<svg version="1.1"
	 xmlns="http://www.w3.org/2000/svg" xmlns:xlink="http://www.w3.org/1999/xlink" xmlns:a="http://ns.adobe.com/AdobeSVGViewerExtensions/3.0/"
	 x="0px" y="0px" width="84px" height="76px" viewBox="0 0 84 76" style="enable-background:new 0 0 84 76;" xml:space="preserve">
<defs>
</defs>
<g transform="translate(0,-952.36218)">
	<path d="M84,952.4v72l-42,4l-42-4v-72l42,4L84,952.4z M73,965.4l-20,2v26l20-2V965.4z M11,967.3c-0.1,0-0.1,0-0.2,0c-1,0-2,0.9-2,2
		c0,1,0.9,2,2,2l20,2c1.1,0.2,2.2-0.7,2.3-1.8c0.1-1.1-0.8-2.2-1.9-2.2l-20-2C11.1,967.3,11.1,967.3,11,967.3L11,967.3z M11,981.3
		c-0.1,0-0.1,0-0.2,0c-1,0-2,0.9-2,2c0,1,0.9,2,2,2l20,2c1.1,0.2,2.2-0.7,2.3-1.8c0.1-1.1-0.8-2.2-1.9-2.2l-20-2
		C11.1,981.3,11.1,981.3,11,981.3L11,981.3z M11,995.3c-0.1,0-0.1,0-0.2,0c-1,0-2,0.9-2,2c0,1,0.9,2,2,2l20,2
		c1.1,0.2,2.2-0.7,2.3-1.8c0.1-1.1-0.8-2.2-1.9-2.2l-20-2C11.1,995.3,11.1,995.3,11,995.3L11,995.3z M72.8,999.4l-20,2
		c-1.1,0-2,1.1-1.9,2.2c0.1,1.1,1.3,2,2.3,1.8l20-2c1-0.1,1.7-1,1.7-2C74.8,1000,73.9,999.3,72.8,999.4L72.8,999.4z M11,1009.3
		c-0.1,0-0.1,0-0.2,0c-1,0-2,0.9-2,2c0,1,0.9,2,2,2l20,2c1.1,0.2,2.2-0.7,2.3-1.8c0.1-1.1-0.8-2.2-1.9-2.2l-20-2
		C11.1,1009.3,11.1,1009.3,11,1009.3L11,1009.3z M72.8,1009.4l-20,2c-1.1,0-2,1.1-1.9,2.2c0.1,1.1,1.3,2,2.3,1.8l20-2
		c1-0.1,1.7-1,1.7-2C74.8,1009.9,74,1009.3,72.8,1009.4L72.8,1009.4z"/>
</g>
</svg>
