<!-- Generator: Adobe Illustrator 21.1.0, SVG Export Plug-In  -->
<svg version="1.1"
	 xmlns="http://www.w3.org/2000/svg" xmlns:xlink="http://www.w3.org/1999/xlink" xmlns:a="http://ns.adobe.com/AdobeSVGViewerExtensions/3.0/"
	 x="0px" y="0px" width="45.6px" height="100px" viewBox="0 0 45.6 100" style="enable-background:new 0 0 45.6 100;"
	 xml:space="preserve">
<defs>
</defs>
<g>
	<path d="M40.7,29.4v-6.2c0-2.1-1.8-3.9-4-3.9c-0.3-1.9-1.6-4.6-5.4-5.2c-2.1-0.3-2.3-2.6-2.3-3V5.9C29,2.6,26.2,0,22.8,0
		s-6.2,2.6-6.2,5.9v5.3c0,0.4-0.2,2.7-2.3,3c-3.8,0.6-5.1,3.3-5.4,5.2c-2.2,0-4,1.7-4,3.9v6.2C2.1,30.2,0,32.6,0,35.5v58.1
		c0,3.5,3,6.4,6.7,6.4h32.1c3.7,0,6.7-2.8,6.7-6.4V35.5C45.6,32.6,43.5,30.2,40.7,29.4z M12.7,20.2C12.7,20.2,12.7,20.2,12.7,20.2
		L12.7,20.2L12.7,20.2c0-0.6,0.3-1.9,2.2-2.2c4.4-0.7,5.5-4.8,5.5-6.8V5.9c0-1.1,1-2,2.3-2s2.3,0.9,2.3,2v5.3c0,2.1,1.2,6.1,5.5,6.8
		c2,0.3,2.2,1.6,2.2,2.2v1.1H12.7V20.2z M3.9,49h9.4c0.5,0,1,0.4,1,1c0,0.5-0.4,1-1,1H3.9C3.9,50.9,3.9,49,3.9,49z M3.9,67.4h9.4
		c0.5,0,1,0.4,1,1s-0.4,1-1,1H3.9C3.9,69.3,3.9,67.4,3.9,67.4z M13.3,87.8H3.9v-1.9h9.4c0.5,0,1,0.4,1,1
		C14.3,87.3,13.8,87.8,13.3,87.8z M19.8,78.5H3.9v-1.9h15.9c0.5,0,1,0.4,1,1S20.3,78.5,19.8,78.5z M19.8,60.1H3.9v-1.9h15.9
		c0.5,0,1,0.4,1,1C20.7,59.7,20.3,60.1,19.8,60.1z M41.7,48.4c-5.3-0.3-11-1.1-16-3.1c-7.8-3-16.2-1.7-21.8,0v-9.8
		c0-1.4,1.3-2.5,2.9-2.5h2v0h28v0h2c1.6,0,2.9,1.1,2.9,2.5L41.7,48.4L41.7,48.4z"/>
</g>
</svg>
