<!-- Generator: Adobe Illustrator 21.1.0, SVG Export Plug-In  -->
<svg version="1.1"
	 xmlns="http://www.w3.org/2000/svg" xmlns:xlink="http://www.w3.org/1999/xlink" xmlns:a="http://ns.adobe.com/AdobeSVGViewerExtensions/3.0/"
	 x="0px" y="0px" width="83.6px" height="90px" viewBox="0 0 83.6 90" style="enable-background:new 0 0 83.6 90;"
	 xml:space="preserve">
<defs>
</defs>
<path d="M83.4,9.1c-0.1-3.6-2.8-6.7-6.5-7.1c-6.6-0.8-20-2-35.1-2C27.1,0,13.5,1.3,6.7,2C3,2.4,0.3,5.5,0.2,9.1
	C0,17.8-0.2,34,0.3,45c0.5,12.1,2.1,28,3,36.4c0.4,3.4,3.1,6.1,6.5,6.5c7.5,0.8,21.7,2.1,32,2.1c10,0,24.3-1.3,31.9-2.1
	c3.4-0.4,6.2-3.1,6.5-6.6c1-10.3,2.7-28.7,3.1-36.2C83.8,36.1,83.5,18.7,83.4,9.1z M77.7,14.2c-0.5,0-1-0.4-1-1
	c0-2.3-1.8-4.3-4.1-4.5c-0.5-0.1-0.9-0.5-0.9-1c0.1-0.5,0.5-0.9,1.1-0.8c3.3,0.4,5.8,3.1,5.8,6.4C78.7,13.8,78.3,14.2,77.7,14.2
	C77.7,14.2,77.7,14.2,77.7,14.2z M75.9,77.1c-0.3,3.1-2.7,5.9-5.9,6.2c-1.6,0.2-3.5,0.9-5.6,0.9h-0.1c-0.5,0-0.9-0.7-1-1.2
	c0-0.5,0.3-1.2,0.9-1.2c2.1-0.2,4-0.5,5.6-0.6c2.2-0.2,3.9-2,4.1-4.2c0.2-1.9,0.4-4.3,0.7-7c0-0.5,0.5-1,1.1-0.9
	c0.5,0.1,0.9,0.5,0.9,1.1C76.3,72.8,76,75.2,75.9,77.1z M5.8,14.2C5.8,14.2,5.8,14.2,5.8,14.2c-0.6,0-1-0.4-1-1
	c0.1-3.3,2.6-6.1,5.8-6.5c0.6-0.1,1,0.4,1.1,0.9c0.1,0.5-0.3,1-0.9,1.1C8.6,9,6.9,11,6.8,13.3C6.8,13.8,6.4,14.2,5.8,14.2z
	 M19.3,16.9l6.3-4.5c9.4-6.8,22-6.8,31.5,0l6.2,4.5L50.9,31.6c-1.1-3.4-3.8-5.8-7.4-6.4l-2.2-13.7l-1.6,13.7
	c-3.7,0.7-6.5,3.3-7.5,6.9L19.3,16.9z M41.6,27.2c4.1,0,6.9,2.4,7.6,6.4L48,35.1c-1.7,2-4.1,3.1-6.7,3.1s-5-1.1-6.7-3.1l-0.7-0.8
	C34.4,30.1,37.4,27.2,41.6,27.2z M7.6,77.3c-0.2-1.9-0.5-4.3-0.7-7.1c0-0.5,0.3-1,0.9-1.1c0.6,0,1,0.3,1.1,0.9
	c0.3,2.7,0.5,5.1,0.7,7c0.2,2.2,1.9,3.8,4.1,4.1c1.4,0.1,3.1,0.3,5,0.5c0.5,0,0.9,0.9,0.9,1.4c0,0.5-0.5,1.2-1,1.2h-0.1
	c-1.9,0-3.6-0.7-5-0.8C10.4,83.1,8,80.4,7.6,77.3z"/>
</svg>
