<!-- Generator: Adobe Illustrator 21.1.0, SVG Export Plug-In  -->
<svg version="1.1"
	 xmlns="http://www.w3.org/2000/svg" xmlns:xlink="http://www.w3.org/1999/xlink" xmlns:a="http://ns.adobe.com/AdobeSVGViewerExtensions/3.0/"
	 x="0px" y="0px" width="65.3px" height="92.7px" viewBox="0 0 65.3 92.7" style="enable-background:new 0 0 65.3 92.7;"
	 xml:space="preserve">
<defs>
</defs>
<circle cx="32.6" cy="18.5" r="18.5"/>
<path d="M45.5,44.9c0.6,1.9,1.1,3.9,1.6,5.8c0.2,0.7,0.3,1.5,0.4,2.2c1.3,0.2,2.5,0.7,3.5,1.6c1.3,1.2,2.1,3,2.1,4.8v13.4
	c0,0.5-0.4,0.9-0.9,0.9h-1.3c-0.2,0.3-0.6,0.6-1.1,0.6c-0.7,0-1.3-0.6-1.3-1.3c0-0.7,0.6-1.3,1.3-1.3c0.4,0,0.7,0.2,1,0.4h0.6V59.3
	c0-1.3-0.6-2.6-1.5-3.5c-1-0.9-2.3-1.3-3.6-1.2c-2.4,0.2-4.3,2.4-4.3,5v12.3h0.6c0.2-0.3,0.6-0.4,1-0.4c0.7,0,1.3,0.6,1.3,1.3
	c0,0.7-0.6,1.3-1.3,1.3c-0.4,0-0.8-0.2-1.1-0.6h-1.3c-0.5,0-0.9-0.4-0.9-0.9v-13c0-3.3,2.3-6,5.3-6.6c-0.1-0.6-0.2-1.2-0.3-1.8
	c-0.5-2.2-1.1-4.5-1.9-6.7c-3.3-0.6-6.9-0.9-10.6-0.9c-3.3,0-6.5,0.2-9.5,0.7c-0.8,2.2-1.4,4.5-1.9,6.8l0,0c2.7,0.7,4.6,3.1,4.6,5.9
	c0,3.4-2.7,6.1-6.1,6.1c-3.4,0-6.1-2.7-6.1-6.1c0-3.2,2.5-5.8,5.6-6.1c0-0.1,0-0.2,0-0.3c0.4-2,1-4,1.6-6C8.7,47,0,52.9,0,59.9
	c0,0.7,0.1,1.3,0.2,2l2.7,22.5c0.6,4.8,4.2,8.3,8.4,8.3h42.6c4.2,0,7.8-3.5,8.4-8.3L65.1,62c0.2-0.7,0.2-1.3,0.2-2
	C65.4,53.2,57.2,47.4,45.5,44.9z"/>
</svg>
