<!-- Generator: Adobe Illustrator 21.1.0, SVG Export Plug-In  -->
<svg version="1.1"
	 xmlns="http://www.w3.org/2000/svg" xmlns:xlink="http://www.w3.org/1999/xlink" xmlns:a="http://ns.adobe.com/AdobeSVGViewerExtensions/3.0/"
	 x="0px" y="0px" width="53.2px" height="52.8px" viewBox="0 0 53.2 52.8" style="enable-background:new 0 0 53.2 52.8;"
	 xml:space="preserve">
<defs>
</defs>
<path d="M27.1,13.4c-0.1-0.1-0.2-0.2-0.4-0.3c0.1-0.5,0.2-1,0.1-1.3c0-0.1,0.1-0.4,0.2-0.8c0.1-0.2,0.2-0.5,0.2-1c0-0.1,0-0.3,0-0.4
	c0-0.4-0.1-0.8-0.1-1.2c0-3.1,0.1-5.1,0.1-5.1S23.8,0,17.5,0c-6.3,0-9.7,3.1-9.7,3.1L8,8.4C7.9,8.9,7.8,9.4,7.8,9.9
	c0,0.2,0,0.3,0,0.4l0,0c0,0,0,0,0,0.1c0,0.4,0.1,0.6,0.2,0.6c0.2,0.6,0.1,1.5,0.3,2.2c-0.1,0.1-0.2,0.1-0.3,0.2
	c-0.3,0.4-0.2,1.3-0.2,1.9c0,1.2,0.8,2.2,1.7,2.2c1.2,4.4,4.3,7.6,8,7.6c3.7,0,6.9-3.2,8-7.6c0.9,0,1.7-1,1.7-2.2
	C27.3,14.7,27.4,13.8,27.1,13.4z M14.5,3.1h2.3V0.8h1.5v2.3h2.3v1.5h-2.3v2.3h-1.5V4.6h-2.3C14.5,4.6,14.5,3.1,14.5,3.1z M25.9,15.3
	c0,0.6-0.3,0.9-0.4,0.9l-1,0l-0.3,1c-1,4-3.8,6.6-6.8,6.6s-5.7-2.7-6.8-6.6l-0.2-1l-1,0c-0.1,0-0.4-0.4-0.4-0.9c0-0.2,0-0.3,0-0.5
	c0,0,0-0.1,0-0.2c0.2,0.1,0.4,0.1,0.6,0.1c0,0,0-0.1,0-0.4l0.5,0l0.1-1.2c0.1-2.9,1.2-3.7,2.3-4h0c0.3,0,1,0.4,1.5,0.7
	c1,0.5,2.1,1.1,3.3,1.1c1.3,0,2.4-0.6,3.2-1.2c0.4-0.3,1-0.6,1.3-0.6c0,0,0,0,0,0c1,0.3,1.9,0.8,2.3,2.2c0,0,0,0,0,0
	c0,0.1,0.1,0.3,0.1,0.4c0,0.2,0.1,0.4,0.1,0.7c0,0.1,0,0.3,0,0.4c0,0.1,0,0.2,0,0.3l0.1,0.9c0,0.2,0,0.4,0,0.6
	c0.5,0.1,0.8,0,1.1-0.3c0,0.1,0,0.3,0,0.4C25.9,15,25.9,15.2,25.9,15.3z"/>
<path d="M23,25.5c-0.7,4.8-1.5,4.3-5.4,5c-3.9-0.7-5-1.6-5.7-5c-1.7,0.3-3.5,0.8-5.4,1.6c0.1,2.3,0.4,4,0.8,5.2
	c0.2,0,0.4-0.1,0.5-0.1c1.9,0,3.5,1.5,3.5,3.5c0,1.9-1.5,3.5-3.5,3.5s-3.5-1.5-3.5-3.5c0-1.3,0.7-2.4,1.7-3
	c-0.4-1.2-0.8-2.9-0.9-5.1c-1.8,0.9-3.5,2.1-5.1,3.7c-0.1,3.1,0.2,7.3,1.5,9.1c1.2,1.6,3.3,4.7,12.7,5.3c0,0,3.3,0.3,6.6,0
	c0.9-0.1,1.7-0.1,2.5-0.2V27h5C26.4,26.3,24.6,25.8,23,25.5z"/>
<path d="M53.2,49.7v-21H24.8v21h9.8v2h-3.1v1.1h15.1v-1.1h-3v-2H53.2z M26.2,48.3V29.8h25.7v18.5H26.2z"/>
<path d="M36.2,43.9c-0.1,0-0.1,0-0.2,0c-0.3,0-0.5-0.2-0.7-0.4l-2.7-4.1c-0.3-0.5-0.2-1.1,0.3-1.4c0.5-0.3,1.1-0.2,1.4,0.3l2.2,3.2
	l9.8-7c0.4-0.3,1.1-0.2,1.4,0.2c0.3,0.4,0.2,1.1-0.2,1.4l-10.6,7.6C36.6,43.8,36.4,43.9,36.2,43.9z"/>
</svg>
