<!-- Generator: Adobe Illustrator 21.1.0, SVG Export Plug-In  -->
<svg version="1.1"
	 xmlns="http://www.w3.org/2000/svg" xmlns:xlink="http://www.w3.org/1999/xlink" xmlns:a="http://ns.adobe.com/AdobeSVGViewerExtensions/3.0/"
	 x="0px" y="0px" width="146.7px" height="125.1px" viewBox="0 0 146.7 125.1" style="enable-background:new 0 0 146.7 125.1;"
	 xml:space="preserve">
<style type="text/css">
	.st0{fill:#010101;}
</style>
<defs>
</defs>
<circle cx="32.6" cy="50" r="18.5"/>
<path d="M45.5,76.4c0.6,1.9,1.1,3.9,1.6,5.8c0.2,0.7,0.3,1.5,0.4,2.2c1.3,0.2,2.5,0.7,3.5,1.6c1.3,1.2,2.1,3,2.1,4.8v13.4
	c0,0.5-0.4,0.9-0.9,0.9h-1.3c-0.2,0.3-0.6,0.6-1.1,0.6c-0.7,0-1.3-0.6-1.3-1.3c0-0.7,0.6-1.3,1.3-1.3c0.4,0,0.7,0.2,1,0.4h0.6V90.8
	c0-1.3-0.6-2.6-1.5-3.5c-1-0.9-2.3-1.3-3.6-1.2c-2.4,0.2-4.3,2.4-4.3,5v12.3h0.6c0.2-0.3,0.6-0.4,1-0.4c0.7,0,1.3,0.6,1.3,1.3
	c0,0.7-0.6,1.3-1.3,1.3c-0.4,0-0.8-0.2-1.1-0.6h-1.3c-0.5,0-0.9-0.4-0.9-0.9v-13c0-3.3,2.3-6,5.3-6.6c-0.1-0.6-0.2-1.2-0.3-1.8
	c-0.5-2.2-1.1-4.5-1.9-6.7c-3.3-0.6-6.9-0.9-10.6-0.9c-3.3,0-6.5,0.2-9.5,0.7c-0.8,2.2-1.4,4.5-1.9,6.8l0,0c2.7,0.7,4.6,3.1,4.6,5.9
	c0,3.4-2.7,6.1-6.1,6.1c-3.4,0-6.1-2.7-6.1-6.1c0-3.2,2.5-5.8,5.6-6.1c0-0.1,0-0.2,0-0.3c0.4-2,1-4,1.6-6C8.7,78.5,0,84.4,0,91.4
	c0,0.7,0.1,1.3,0.2,2l2.7,22.5c0.6,4.8,4.2,8.3,8.4,8.3h42.6c4.2,0,7.8-3.5,8.4-8.3l2.8-22.4c0.2-0.7,0.2-1.3,0.2-2
	C65.4,84.7,57.2,78.9,45.5,76.4z"/>
<path d="M69.6,0C54.5,0,42.3,8.4,42.3,18.8c0,5.6,3.5,10.8,9.7,14.3v7.5c0,0.9,0.5,1.7,1.4,2.1c0.8,0.4,1.8,0.2,2.5-0.4l6.4-5.5
	c4.9,0.9,10,0.9,14.8,0l6.4,5.5c0.4,0.4,1,0.6,1.5,0.6c0.3,0,0.7-0.1,1-0.2c0.8-0.4,1.4-1.2,1.4-2.1v-7.5c6.2-3.6,9.7-8.7,9.7-14.3
	C96.9,8.4,84.7,0,69.6,0z M83.8,29.7c-1,0.5-1.4,1.5-1.2,2.5v3.3l-3-2.6c-0.5-0.7-1.5-1.1-2.4-0.9c-5,1.1-10.3,1.1-15.3,0
	c-0.9-0.2-1.8,0.1-2.3,0.8l-3.1,2.7v-3.1c0.3-1.1-0.1-2.3-1.2-2.8c-5.4-2.7-8.5-6.7-8.5-11c0-7.7,10.4-14.1,22.7-14.1
	c12.3,0,22.7,6.5,22.7,14.1C92.3,23,89.2,27,83.8,29.7z"/>
<path class="st0" d="M88.2,47.7c0,7.8,6.4,14.2,14.2,14.2c7.4,0,13.5-5.8,14.1-13c0.6,0.2,1.2,0.3,1.9,0.3c3.6,0,6.5-3.1,6.5-7
	c0-3.8-2.9-7-6.5-7c-2.2,0-4.2,1.2-5.4,3.1c-2.6-2.9-6.4-4.8-10.6-4.8C94.5,33.5,88.2,39.9,88.2,47.7z"/>
<path class="st0" d="M77.7,110.7l-5.5,14.4H140l-5.3-15.5l8-5.1c4.4-2.9,4.7-7.3,2.8-10.2l-10.8-26.7c-3.7-6.4-8.1-8.9-16.6-9h-1.7
	c-3.3,4.2-8.4,7-14.1,7c-5.2,0-9.8-2.2-13.1-5.7c-6.8,2.7-10,9.4-11.4,13.5l-8.1,24.3l0,0c-0.9,2.9,0.2,6.5,4.5,8.4l19.8,7.9
	c0.8,0.3,1.2,1.2,0.9,2c-0.2,0.6-0.8,1-1.4,1c-0.2,0-0.4,0-0.6-0.1L77.7,110.7z M103.9,89.1c-0.4-4.1-3.8-5.9-3.9-6
	c-1.5-0.7-2.1-2.6-1.4-4.1c0.7-1.5,2.6-2.1,4.1-1.4c0.3,0.1,6.4,3.3,7.2,10.8c0.3,2.7-0.4,5.5-1.2,7.8c2,0.6,4.7,1.5,6.4,2
	c-0.3-1-0.5-2-0.8-3c-0.4-1.6-0.1-2.7,0.8-3.6c0.4-0.4,1.3-0.8,2-0.9c3.7-0.8,7.3-1.4,11-2.2c3.8-0.8,4.9,4.8,1.1,5.6
	c-2.5,0.5-5,1.1-7.5,1.6c0.6,2.3,1.4,5,2.1,7.3c0,0.2,1,2.6,0.3,4.7c-0.5,1.5-1.6,2.8-3,3.5c-0.6-0.5-1.3-0.9-2.2-1.3l-13.1-5.4
	l-5.4-2.3c-0.2-0.3-0.3-0.8-0.3-1.6c0-2.6,2.8-6.1,2.8-6.1l0,0C103.6,92.8,104.1,90.8,103.9,89.1z M94.7,99.8l-12.2-5.2
	c-0.6-1.7-0.7-3.6-0.1-5.5c1.5-4.6,6.5-7.1,11.1-5.6c4.6,1.5,7.1,6.5,5.6,11.1C98.4,97,96.7,98.8,94.7,99.8z"/>
</svg>
