<!-- Generator: Adobe Illustrator 21.1.0, SVG Export Plug-In  -->
<svg version="1.1"
	 xmlns="http://www.w3.org/2000/svg" xmlns:xlink="http://www.w3.org/1999/xlink" xmlns:a="http://ns.adobe.com/AdobeSVGViewerExtensions/3.0/"
	 x="0px" y="0px" width="110px" height="131.5px" viewBox="0 0 110 131.5" style="enable-background:new 0 0 110 131.5;"
	 xml:space="preserve">
<defs>
</defs>
<g>
	<g>
		<circle cx="83.3" cy="18.5" r="16"/>
		<path d="M59.9,89.2c0.1,0,0.3,0,0.4,0c1.9,0,3.5-1.9,3.7-4.4c1.1-12.8,3.3-21.2,5.5-26.6c-1.7,13.4-3.7,21.6-3.7,33.8
			c0,1.1,2.4,1.9,6,2.4v29.8c0,3.6,2.2,6.5,4.9,6.5c2.7,0,4.9-2.9,4.9-6.5V95c1.1,0,2.3,0,3.4,0v29.1c0,3.6,2.2,6.5,4.9,6.5
			c2.7,0,4.9-2.9,4.9-6.5V94.4c3.6-0.5,6-1.3,6-2.4c0-12.2-2-20.3-3.7-33.8c2.2,5.4,4.4,13.7,5.5,26.6c0.2,2.6,1.8,4.4,3.7,4.4
			c0.1,0,0.3,0,0.4,0c2.1-0.3,3.5-2.8,3.3-5.5c-1.7-19.3-5.7-30.5-9.7-37c-3.6-5.8-7.1-7.6-8.3-8c-1.7-0.8-4.4-1.5-8.7-1.5
			c-4.3,0-7,0.7-8.7,1.5c-1.1,0.4-4.7,2.2-8.3,8c-4,6.5-8,17.7-9.7,37C56.4,86.4,57.9,88.9,59.9,89.2z"/>
	</g>
	<g>
		<circle cx="25.9" cy="17.5" r="17.5"/>
		<path d="M3.6,90.7c0.1,0,0.1,0,0.2,0c2,0,3.7-2.1,3.8-4.7c0.7-18.5,3.1-25.7,5.2-30.9v36.5v32c0,4.4,2.7,8,6,8s6-3.6,6-8v-39H27
			v39c0,4.4,2.7,8,6,8c3.3,0,6-3.6,6-8v-32V55c0.1,0.2,0.1,0.4,0.2,0.6c2,5.4,4.3,12.5,5,30.4c0.1,2.7,1.8,4.7,3.8,4.7
			c0.1,0,0.1,0,0.2,0c2.1-0.1,3.7-2.5,3.6-5.2c-0.8-21.4-3.8-30.3-7-37.2c-3.1-6.9-6.8-8.5-7.8-8.7c-0.4-0.1-0.8-0.1-1.1,0
			c-0.2,0-0.4-0.1-0.6-0.1H16.5c-0.2,0-0.4,0-0.7,0.1c-0.4-0.1-0.7-0.1-1.1,0v0c-1,0.2-4.6,1.8-7.8,8.7C3.8,55.2,0.8,64,0,85.4
			C-0.1,88.2,1.5,90.5,3.6,90.7z"/>
	</g>
</g>
</svg>
